# xmcd
#
# Track frame offsets: 
#        150
#        13548
#        27402
#        44236
#        61996
#        77944
#        91138
#        106617
#        125093
#        141713
#        156944
#        175562
#
# Disc length: 2536 seconds
#
# Revision: 0
# Processed by: cddbd v1.5.2PL0 Copyright (c) Steve Scherf et al.
# Submitted via: ExactAudioCopy v0.99pb4
#
DISCID=a109e60c
DTITLE=Gwen Sebastian - Invitation
DYEAR=2006
DGENRE=Country
TTITLE0=Yeah, Yeah, Yeah
TTITLE1=It's Still Raining
TTITLE2=Not Supposed To Cry
TTITLE3=The Truth Won't Help
TTITLE4=Don't Wait 'Til It's Gone
TTITLE5=Who's Counting
TTITLE6=Trouble Is A Woman
TTITLE7=Fearless
TTITLE8=Savannah To San Antone
TTITLE9=Invitation To The Blues
TTITLE10=A Chance To Change The World
TTITLE11=You're Still Here
EXTD=
EXTT0=
EXTT1=
EXTT2=
EXTT3=
EXTT4=
EXTT5=
EXTT6=
EXTT7=
EXTT8=
EXTT9=
EXTT10=
EXTT11=
PLAYORDER=
